<?xml version="1.0" encoding="utf-8"?>
<!-- Generator: Adobe Illustrator 25.3.1, SVG Export Plug-In . SVG Version: 6.00 Build 0)  -->
<svg version="1.1" id="Lager_1" xmlns="http://www.w3.org/2000/svg" xmlns:xlink="http://www.w3.org/1999/xlink" x="0px" y="0px"
	 viewBox="0 0 18.8 21.9">
<g>
	<path d="M-1106.4,1036.4l64-26.4c64-26.4,192-79.1,320-26.4c128,52.8,256,211.1,384,184.7
		c128-26.4,256-237.4,384-369.4c128-131.9,256-184.7,384-79.1c128,105.5,256,369.4,320,501.3l64,131.9v316.6h-64c-64,0-192,0-320,0
		s-256,0-384,0c-128,0-256,0-384,0c-128,0-256,0-384,0s-256,0-320,0h-64V1036.4z"/>
	<path d="M-1106.4,1036.4l64-26.4c64-26.4,192-79.1,320-26.4c128,52.8,256,211.1,384,184.7
		c128-26.4,256-237.4,384-369.4c128-131.9,256-184.7,384-79.1c128,105.5,256,369.4,320,501.3l64,131.9v316.6h-64c-64,0-192,0-320,0
		s-256,0-384,0c-128,0-256,0-384,0c-128,0-256,0-384,0s-256,0-320,0h-64V1036.4z"/>
</g>
</svg>
